<?xml version="1.0" encoding="UTF-8"?><svg id="_レイヤー_2" xmlns="http://www.w3.org/2000/svg" viewBox="0 0 36.73 14.84"><defs><style>.cls-1{fill:#fff;}</style></defs><g id="_レイヤー_1-2"><path d="m6.85,7.04c-.27-.46-.67-.81-1.22-1.05-.54-.24-1.2-.35-1.96-.35H1.1L0,14.69h2.22l.37-3.17h.82c.66,0,1.26-.1,1.79-.3.53-.2.97-.51,1.3-.92.34-.41.54-.93.62-1.54.08-.68-.01-1.25-.28-1.72Zm-2.18,2.23c-.14.16-.32.27-.55.34s-.5.11-.82.11h-.48l.28-2.24h.44c.32,0,.59.04.8.13.22.09.37.22.47.4.1.18.13.39.1.65-.03.26-.12.46-.25.62Z"/><path d="m11.24,8.66l-.4,3.28c-.03.26-.08.46-.15.62s-.16.28-.29.37-.29.13-.5.13c-.3,0-.52-.09-.64-.28-.12-.19-.16-.47-.11-.83l.4-3.28h-2.15l-.4,3.23c-.09.68-.02,1.24.19,1.68.22.44.55.76,1,.97.45.2.98.31,1.58.31.91,0,1.64-.23,2.19-.69s.88-1.14.99-2.05l.42-3.44h-2.15Z"/><path d="m20.22,10.13c-.19-.5-.49-.9-.89-1.19-.4-.29-.89-.44-1.47-.44-.41,0-.78.08-1.1.25s-.59.38-.79.64h-.05c.03-.13.06-.25.08-.36.02-.11.04-.22.06-.31s.03-.18.05-.25c.02-.07.03-.13.04-.19l.41-3.4h-2.16l-1.2,9.79h2.14l.07-.82h.05c.13.19.29.36.49.5.2.14.42.26.67.34.24.08.5.12.77.12.54,0,1.04-.13,1.48-.4.44-.27.79-.63,1.06-1.09.27-.46.43-.97.5-1.53.06-.62,0-1.17-.19-1.67Zm-2.2,2.26c-.13.21-.3.38-.51.5s-.45.18-.7.18-.49-.06-.68-.18c-.19-.12-.33-.29-.43-.5-.09-.21-.12-.45-.09-.73.03-.27.11-.51.23-.72s.29-.37.5-.49c.21-.12.46-.17.74-.17s.5.06.68.17c.18.12.31.28.4.49s.11.45.09.73c-.02.26-.1.5-.23.71Z"/><path d="m27.35,10.13c-.19-.5-.49-.9-.89-1.19s-.89-.44-1.47-.44c-.41,0-.78.08-1.1.25s-.59.38-.79.64h-.05c.03-.13.06-.25.08-.36.02-.11.04-.22.06-.31.02-.1.03-.18.05-.25.02-.07.03-.13.04-.19l.41-3.4h-2.16l-1.2,9.79h2.14l.07-.82h.05c.13.19.29.36.49.5.2.14.42.26.67.34.24.08.5.12.77.12.54,0,1.04-.13,1.48-.4.44-.27.79-.63,1.06-1.09.27-.46.43-.97.5-1.53.06-.62,0-1.17-.19-1.67Zm-2.2,2.26c-.13.21-.3.38-.51.5-.21.12-.45.18-.7.18s-.49-.06-.68-.18c-.19-.12-.33-.29-.43-.5s-.12-.45-.09-.73c.03-.27.11-.51.23-.72.12-.21.29-.37.5-.49.21-.12.46-.17.74-.17s.5.06.68.17c.18.12.31.28.4.49s.11.45.09.73c-.02.26-.1.5-.23.71Z"/><polygon points="28.67 4.9 27.46 14.69 29.62 14.69 30.83 4.9 28.67 4.9"/><path d="m36.4,10.04c-.24-.5-.59-.88-1.06-1.14-.46-.26-1.01-.4-1.64-.4s-1.18.13-1.68.38c-.5.26-.91.62-1.22,1.08-.31.46-.48,1-.52,1.62-.06.68.05,1.26.31,1.75s.64.86,1.13,1.12c.5.26,1.06.38,1.7.38.47,0,.91-.07,1.31-.2.4-.13.75-.33,1.06-.61.31-.27.56-.61.75-1.02l-1.94-.37c-.14.26-.3.45-.48.58s-.38.19-.62.19c-.22,0-.41-.05-.58-.16-.17-.11-.3-.27-.38-.47-.08-.2-.13-.43-.13-.69l4.28.02s.01-.06.02-.1,0-.06,0-.08c0-.02,0-.03,0-.05,0-.02,0-.04,0-.05.02-.69-.08-1.28-.32-1.78Zm-3.85.85c.04-.18.11-.34.21-.48.1-.15.23-.26.39-.35.16-.08.33-.13.52-.13s.36.04.5.11.25.19.33.33c.08.14.12.31.13.49l-2.08.02Z"/><circle class="cls-1" cx="23.94" cy="5.72" r="5.72"/></g></svg>