<svg width="26" height="26" viewBox="0 0 26 26" fill="none" xmlns="http://www.w3.org/2000/svg">
<path d="M13.196 13.3455L11.02 7.68852C10.9873 7.60362 10.9297 7.53062 10.8548 7.47913C10.7798 7.42763 10.691 7.40007 10.6 7.40007C10.509 7.40007 10.4202 7.42763 10.3452 7.47913C10.2703 7.53062 10.2127 7.60362 10.18 7.68852L8.004 13.3455C7.9814 13.4043 7.94671 13.4577 7.90218 13.5022C7.85765 13.5467 7.80428 13.5814 7.7455 13.604L2.0885 15.78C2.00361 15.8127 1.9306 15.8703 1.87911 15.9453C1.82762 16.0203 1.80005 16.1091 1.80005 16.2C1.80005 16.291 1.82762 16.3798 1.87911 16.4548C1.9306 16.5298 2.00361 16.5874 2.0885 16.62L7.7455 18.796C7.80428 18.8186 7.85765 18.8533 7.90218 18.8979C7.94671 18.9424 7.9814 18.9958 8.004 19.0545L10.18 24.7116C10.2127 24.7964 10.2703 24.8695 10.3452 24.9209C10.4202 24.9724 10.509 25 10.6 25C10.691 25 10.7798 24.9724 10.8548 24.9209C10.9297 24.8695 10.9873 24.7964 11.02 24.7116L13.196 19.0545C13.2186 18.9958 13.2533 18.9424 13.2978 18.8979C13.3423 18.8533 13.3957 18.8186 13.4545 18.796L19.1115 16.62C19.1964 16.5874 19.2694 16.5298 19.3209 16.4548C19.3724 16.3798 19.3999 16.291 19.3999 16.2C19.3999 16.1091 19.3724 16.0203 19.3209 15.9453C19.2694 15.8703 19.1964 15.8127 19.1115 15.78L13.4545 13.604C13.3957 13.5814 13.3423 13.5467 13.2978 13.5022C13.2533 13.4577 13.2186 13.4043 13.196 13.3455ZM5.6 3.60001L4.6 1L3.6 3.60001L1 4.60001L3.6 5.60001L4.6 8.20002L5.6 5.60001L8.2 4.60001L5.6 3.60001ZM21.5335 6.06651L20.2 2.6L18.8665 6.06651L15.4 7.40001L18.8665 8.73352L20.2 12.2L21.5335 8.73352L25 7.40001L21.5335 6.06651Z" stroke="black" stroke-width="2" stroke-linecap="round" stroke-linejoin="round"/>
</svg>
