<svg xmlns="http://www.w3.org/2000/svg" width="150" height="60" viewBox="0 0 150 60" fill="none">
  <g clip-path="url(#clip0_347_196)">
    <path d="M27.9744 28.4636C26.8718 26.6038 25.2382 25.1887 22.9921 24.2183C20.7868 23.248 18.0915 22.8032 14.9877 22.8032H4.49224L0 59.3935H9.06616L10.5772 46.5768H13.9259C16.6213 46.5768 19.0716 46.1725 21.236 45.3639C23.4005 44.5552 25.1974 43.3019 26.5451 41.6442C27.9336 39.9865 28.7503 37.8841 29.077 35.4178C29.4038 32.6685 29.0362 30.3639 27.9336 28.4636H27.9744ZM19.0716 37.4798C18.4999 38.1267 17.7648 38.5714 16.8255 38.8544C15.8862 39.1375 14.7836 39.2992 13.4767 39.2992H11.5165L12.66 30.2426H14.4568C15.7637 30.2426 16.8663 30.4043 17.7239 30.7682C18.6224 31.1321 19.235 31.6577 19.6433 32.3854C20.0517 33.1132 20.1742 33.9623 20.0517 35.0135C19.9292 36.0647 19.5617 36.8733 19.0308 37.5202L19.0716 37.4798Z" fill="white"/>
    <path d="M45.9022 35.0134L44.2686 48.2749C44.1461 49.3261 43.9419 50.1347 43.656 50.7816C43.3702 51.4285 43.0026 51.9137 42.4717 52.2776C41.9408 52.6415 41.2874 52.8032 40.4298 52.8032C39.2046 52.8032 38.3062 52.4393 37.8161 51.6711C37.3261 50.9029 37.1627 49.7708 37.3669 48.3153L39.0004 35.0539H30.2202L28.5866 48.1132C28.2191 50.8625 28.5049 53.1266 29.3625 54.9056C30.261 56.6846 31.6087 57.9784 33.4464 58.8274C35.2841 59.6361 37.4486 60.0808 39.8989 60.0808C43.6152 60.0808 46.5964 59.1509 48.8425 57.2911C51.0887 55.4312 52.4363 52.6819 52.8856 49.0026L54.6008 35.0943H45.8205L45.9022 35.0134Z" fill="white"/>
    <path d="M82.5759 40.9569C81.8 38.9353 80.5748 37.3181 78.9413 36.1456C77.3077 34.9731 75.3066 34.3666 72.938 34.3666C71.2636 34.3666 69.7526 34.69 68.4458 35.3774C67.1389 36.0647 66.0363 36.9138 65.2195 37.965H65.0153C65.1378 37.4394 65.2603 36.9542 65.342 36.5094C65.4237 36.0647 65.5054 35.62 65.5871 35.2561C65.6687 34.8922 65.7096 34.5283 65.7912 34.2453C65.8729 33.9623 65.9138 33.7197 65.9546 33.4771L67.629 19.7305H58.8079L53.9072 59.3127H62.6467L62.9325 55.9973H63.1367C63.6676 56.7655 64.3211 57.4528 65.1378 58.0189C65.9546 58.5849 66.8531 59.0701 67.874 59.3935C68.8541 59.717 69.9159 59.8787 71.0186 59.8787C73.2239 59.8787 75.2658 59.3531 77.0627 58.2615C78.8596 57.1698 80.2889 55.7143 81.3916 53.8545C82.4942 51.9946 83.1476 49.9326 83.4335 47.6685C83.6785 45.1617 83.4335 42.938 82.6576 40.9165L82.5759 40.9569ZM73.5914 50.0944C73.0605 50.9434 72.3663 51.6307 71.5086 52.1159C70.651 52.6011 69.6709 52.8437 68.6499 52.8437C67.629 52.8437 66.6489 52.6011 65.8729 52.1159C65.097 51.6307 64.5253 50.9434 64.1169 50.0944C63.7493 49.2453 63.6268 48.2749 63.7493 47.1429C63.8718 46.0512 64.1985 45.0809 64.6886 44.2318C65.1787 43.3828 65.8729 42.7359 66.7305 42.2507C67.5881 41.7655 68.6091 41.5634 69.7526 41.5634C70.8961 41.5634 71.7945 41.8059 72.5296 42.2507C73.2647 42.7359 73.7956 43.3828 74.1631 44.2318C74.5307 45.0809 74.6124 46.0512 74.5307 47.1833C74.449 48.2345 74.1223 49.2049 73.5914 50.0539V50.0944Z" fill="white"/>
    <path d="M111.693 40.9569C110.917 38.9353 109.692 37.3181 108.058 36.1456C106.425 34.9731 104.424 34.3666 102.055 34.3666C100.381 34.3666 98.8698 34.69 97.5629 35.3774C96.2561 36.0647 95.1535 36.9138 94.3367 37.965H94.1325C94.255 37.4394 94.3775 36.9542 94.4592 36.5094C94.5409 36.0647 94.6226 35.62 94.7042 35.2561C94.7859 34.8518 94.8268 34.5283 94.9084 34.2453C94.9901 33.9623 95.031 33.7197 95.0718 33.4771L96.7462 19.7305H87.925L83.0244 59.3127H91.7639L92.0497 55.9973H92.2539C92.7848 56.7655 93.4382 57.4528 94.255 58.0189C95.0718 58.5849 95.9702 59.0701 96.9912 59.3935C97.9713 59.717 99.0331 59.8787 100.136 59.8787C102.341 59.8787 104.383 59.3531 106.18 58.2615C107.977 57.1698 109.406 55.7143 110.509 53.8545C111.611 51.9946 112.265 49.9326 112.551 47.6685C112.796 45.1617 112.551 42.938 111.775 40.9165L111.693 40.9569ZM102.709 50.0944C102.178 50.9434 101.483 51.6307 100.626 52.1159C99.7682 52.6011 98.7881 52.8437 97.7671 52.8437C96.7462 52.8437 95.766 52.6011 94.9901 52.1159C94.2142 51.6307 93.6424 50.9434 93.2341 50.0944C92.8257 49.2453 92.744 48.2749 92.8665 47.1429C92.989 46.0512 93.3157 45.0809 93.8058 44.2318C94.2959 43.3828 94.9901 42.7359 95.8477 42.2507C96.7053 41.7655 97.7263 41.5634 98.8698 41.5634C100.013 41.5634 100.912 41.8059 101.647 42.2507C102.382 42.7359 102.913 43.3828 103.28 44.2318C103.648 45.0809 103.73 46.0512 103.648 47.1833C103.566 48.2345 103.239 49.2049 102.709 50.0539V50.0944Z" fill="white"/>
    <path d="M117.084 19.8113L112.143 59.3935H120.964L125.905 19.8113H117.084Z" fill="white"/>
    <path d="M148.652 40.5931C147.672 38.5716 146.243 37.0352 144.323 35.9839C142.445 34.9327 140.199 34.3667 137.626 34.3667C135.053 34.3667 132.807 34.8923 130.765 35.9031C128.723 36.9543 127.049 38.4098 125.783 40.2697C124.517 42.1295 123.822 44.3128 123.659 46.8195C123.414 49.5689 123.863 51.9139 124.925 53.895C125.987 55.8761 127.539 57.3721 129.54 58.4233C131.582 59.4745 133.869 59.9597 136.482 59.9597C138.402 59.9597 140.199 59.6767 141.832 59.1511C143.466 58.6255 144.895 57.8168 146.161 56.6848C147.427 55.5931 148.448 54.2185 149.224 52.5608L141.301 51.0648C140.73 52.116 140.076 52.8842 139.341 53.4098C138.606 53.9354 137.789 54.178 136.809 54.178C135.911 54.178 135.135 53.9759 134.44 53.5311C133.746 53.0864 133.215 52.4395 132.889 51.6309C132.562 50.8222 132.358 49.8923 132.358 48.8411L149.837 48.922C149.837 48.922 149.877 48.6794 149.918 48.5176C149.959 48.3559 149.918 48.2751 149.918 48.1942C149.918 48.1133 149.918 48.0729 149.918 47.992C149.918 47.9112 149.918 47.8303 149.918 47.7899C150 45.0001 149.592 42.6147 148.611 40.5931H148.652ZM132.929 44.0298C133.093 43.302 133.379 42.6551 133.787 42.0891C134.195 41.4826 134.726 41.0379 135.38 40.674C136.033 40.3505 136.727 40.1484 137.503 40.1484C138.279 40.1484 138.974 40.3101 139.545 40.5931C140.117 40.8761 140.566 41.3613 140.893 41.9273C141.22 42.4934 141.383 43.1807 141.424 43.9085L132.929 43.9893V44.0298Z" fill="white"/>
    <path d="M98 46C110.703 46 121 35.7026 121 23C121 10.2975 110.703 0 98 0C85.2975 0 75 10.2975 75 23C75 35.7026 85.2975 46 98 46Z" fill="black"/>
  </g>
  <defs>
    <clipPath id="clip0_347_196">
      <rect width="150" height="60" fill="white"/>
    </clipPath>
  </defs>
</svg>