<svg width="150" height="60" viewBox="0 0 150 60" fill="none" xmlns="http://www.w3.org/2000/svg">
<g clip-path="url(#clip0_210_1549)">
<path d="M27.9744 28.4636C26.8718 26.6038 25.2382 25.1887 22.9921 24.2183C20.7868 23.248 18.0915 22.8032 14.9877 22.8032H4.49224L0 59.3935H9.06616L10.5772 46.5768H13.9259C16.6213 46.5768 19.0716 46.1725 21.236 45.3639C23.4005 44.5552 25.1974 43.3019 26.5451 41.6442C27.9336 39.9865 28.7503 37.8841 29.077 35.4178C29.4038 32.6685 29.0362 30.3639 27.9336 28.4636H27.9744ZM19.0716 37.4798C18.4999 38.1267 17.7648 38.5714 16.8255 38.8544C15.8862 39.1375 14.7836 39.2992 13.4767 39.2992H11.5165L12.66 30.2426H14.4568C15.7637 30.2426 16.8663 30.4043 17.7239 30.7682C18.6224 31.1321 19.235 31.6577 19.6433 32.3854C20.0517 33.1132 20.1742 33.9623 20.0517 35.0135C19.9292 36.0647 19.5617 36.8733 19.0308 37.5202L19.0716 37.4798Z" fill="black"/>
<path d="M45.9026 35.0135L44.2691 48.2749C44.1466 49.3262 43.9424 50.1348 43.6565 50.7817C43.3707 51.4286 43.0031 51.9138 42.4722 52.2776C41.9413 52.6415 41.2879 52.8032 40.4303 52.8032C39.2051 52.8032 38.3067 52.4394 37.8166 51.6712C37.3266 50.903 37.1632 49.7709 37.3674 48.3154L39.0009 35.0539H30.2206L28.5871 48.1132C28.2196 50.8625 28.5054 53.1267 29.363 54.9057C30.2615 56.6846 31.6092 57.9784 33.4469 58.8275C35.2846 59.6361 37.4491 60.0809 39.8994 60.0809C43.6157 60.0809 46.5969 59.151 48.843 57.2911C51.0891 55.4313 52.4368 52.682 52.886 49.0027L54.6013 35.0944H45.821L45.9026 35.0135Z" fill="black"/>
<path d="M82.5754 40.9569C81.7995 38.9353 80.5743 37.3181 78.9408 36.1456C77.3072 34.9731 75.3061 34.3666 72.9375 34.3666C71.2631 34.3666 69.7521 34.69 68.4453 35.3774C67.1384 36.0647 66.0358 36.9138 65.219 37.965H65.0148C65.1373 37.4394 65.2599 36.9542 65.3415 36.5094C65.4232 36.0647 65.5049 35.62 65.5866 35.2561C65.6682 34.8922 65.7091 34.5283 65.7908 34.2453C65.8724 33.9623 65.9133 33.7197 65.9541 33.4771L67.6285 19.7305H58.8074L53.9067 59.3127H62.6462L62.9321 55.9973H63.1363C63.6672 56.7655 64.3206 57.4528 65.1373 58.0189C65.9541 58.5849 66.8526 59.0701 67.8735 59.3935C68.8537 59.717 69.9154 59.8787 71.0181 59.8787C73.2234 59.8787 75.2653 59.3531 77.0622 58.2615C78.8591 57.1698 80.2884 55.7143 81.3911 53.8545C82.4937 51.9946 83.1471 49.9326 83.433 47.6685C83.678 45.1617 83.433 42.938 82.6571 40.9165L82.5754 40.9569ZM73.5909 50.0944C73.06 50.9434 72.3658 51.6307 71.5082 52.1159C70.6505 52.6011 69.6704 52.8437 68.6495 52.8437C67.6285 52.8437 66.6484 52.6011 65.8724 52.1159C65.0965 51.6307 64.5248 50.9434 64.1164 50.0944C63.7488 49.2453 63.6263 48.2749 63.7488 47.1429C63.8713 46.0512 64.1981 45.0809 64.6881 44.2318C65.1782 43.3828 65.8724 42.7359 66.73 42.2507C67.5877 41.7655 68.6086 41.5634 69.7521 41.5634C70.8956 41.5634 71.794 41.8059 72.5291 42.2507C73.2642 42.7359 73.7951 43.3828 74.1627 44.2318C74.5302 45.0809 74.6119 46.0512 74.5302 47.1833C74.4485 48.2345 74.1218 49.2049 73.5909 50.0539V50.0944Z" fill="black"/>
<path d="M111.694 40.9569C110.918 38.9353 109.692 37.3181 108.059 36.1456C106.425 34.9731 104.424 34.3666 102.056 34.3666C100.381 34.3666 98.8703 34.69 97.5634 35.3774C96.2566 36.0647 95.154 36.9138 94.3372 37.965H94.133C94.2555 37.4394 94.378 36.9542 94.4597 36.5094C94.5414 36.0647 94.6231 35.62 94.7047 35.2561C94.7864 34.8518 94.8272 34.5283 94.9089 34.2453C94.9906 33.9623 95.0314 33.7197 95.0723 33.4771L96.7467 19.7305H87.9255L83.0249 59.3127H91.7644L92.0502 55.9973H92.2544C92.7853 56.7655 93.4387 57.4528 94.2555 58.0189C95.0723 58.5849 95.9707 59.0701 96.9917 59.3935C97.9718 59.717 99.0336 59.8787 100.136 59.8787C102.342 59.8787 104.383 59.3531 106.18 58.2615C107.977 57.1698 109.407 55.7143 110.509 53.8545C111.612 51.9946 112.265 49.9326 112.551 47.6685C112.796 45.1617 112.551 42.938 111.775 40.9165L111.694 40.9569ZM102.709 50.0944C102.178 50.9434 101.484 51.6307 100.626 52.1159C99.7687 52.6011 98.7886 52.8437 97.7676 52.8437C96.7467 52.8437 95.7665 52.6011 94.9906 52.1159C94.2147 51.6307 93.6429 50.9434 93.2345 50.0944C92.8262 49.2453 92.7445 48.2749 92.867 47.1429C92.9895 46.0512 93.3162 45.0809 93.8063 44.2318C94.2963 43.3828 94.9906 42.7359 95.8482 42.2507C96.7058 41.7655 97.7268 41.5634 98.8703 41.5634C100.014 41.5634 100.912 41.8059 101.647 42.2507C102.382 42.7359 102.913 43.3828 103.281 44.2318C103.648 45.0809 103.73 46.0512 103.648 47.1833C103.567 48.2345 103.24 49.2049 102.709 50.0539V50.0944Z" fill="black"/>
<path d="M117.084 19.8113L112.143 59.3935H120.964L125.905 19.8113H117.084Z" fill="black"/>
<path d="M148.652 40.593C147.672 38.5714 146.243 37.035 144.323 35.9838C142.445 34.9326 140.199 34.3666 137.626 34.3666C135.053 34.3666 132.807 34.8922 130.765 35.903C128.723 36.9542 127.049 38.4097 125.783 40.2695C124.517 42.1294 123.822 44.3127 123.659 46.8194C123.414 49.5687 123.863 51.9137 124.925 53.8949C125.987 55.876 127.539 57.372 129.54 58.4232C131.582 59.4744 133.869 59.9596 136.482 59.9596C138.402 59.9596 140.199 59.6766 141.832 59.1509C143.466 58.6253 144.895 57.8167 146.161 56.6846C147.427 55.593 148.448 54.2183 149.224 52.5606L141.301 51.0647C140.73 52.1159 140.076 52.8841 139.341 53.4097C138.606 53.9353 137.789 54.1779 136.809 54.1779C135.911 54.1779 135.135 53.9757 134.44 53.531C133.746 53.0863 133.215 52.4394 132.889 51.6307C132.562 50.8221 132.358 49.8922 132.358 48.841L149.837 48.9218C149.837 48.9218 149.877 48.6792 149.918 48.5175C149.959 48.3558 149.918 48.2749 149.918 48.1941C149.918 48.1132 149.918 48.0728 149.918 47.9919C149.918 47.9111 149.918 47.8302 149.918 47.7898C150 45 149.592 42.6146 148.611 40.593H148.652ZM132.929 44.0297C133.093 43.3019 133.379 42.655 133.787 42.0889C134.195 41.4825 134.726 41.0377 135.38 40.6739C136.033 40.3504 136.727 40.1483 137.503 40.1483C138.279 40.1483 138.974 40.31 139.545 40.593C140.117 40.876 140.566 41.3612 140.893 41.9272C141.22 42.4933 141.383 43.1806 141.424 43.9084L132.929 43.9892V44.0297Z" fill="black"/>
<path d="M98 46C110.703 46 121 35.7026 121 23C121 10.2975 110.703 0 98 0C85.2975 0 75 10.2975 75 23C75 35.7026 85.2975 46 98 46Z" fill="white"/>
</g>
<defs>
<clipPath id="clip0_210_1549">
<rect width="150" height="60" fill="white"/>
</clipPath>
</defs>
</svg>
